<?xml version="1.0" encoding="UTF-8"?><svg id="Layer_2" xmlns="http://www.w3.org/2000/svg" viewBox="0 0 48.17 48.17"><defs><style>.cls-1{fill:#231f20;}</style></defs><g id="Layer_1-2"><g><path class="cls-1" d="M34.34,48.17H13.83c-7.62,0-13.83-6.2-13.83-13.83V13.83C0,6.2,6.2,0,13.83,0h20.52c7.62,0,13.83,6.2,13.83,13.83v20.52c0,7.62-6.2,13.83-13.83,13.83ZM13.83,5c-4.87,0-8.83,3.96-8.83,8.83v20.52c0,4.87,3.96,8.83,8.83,8.83h20.52c4.87,0,8.83-3.96,8.83-8.83V13.83c0-4.87-3.96-8.83-8.83-8.83H13.83Z"/><path class="cls-1" d="M24.08,36.93c-7,0-12.7-5.7-12.7-12.7s5.7-12.7,12.7-12.7,12.7,5.7,12.7,12.7-5.7,12.7-12.7,12.7Zm0-20.4c-4.25,0-7.7,3.45-7.7,7.7s3.45,7.7,7.7,7.7,7.7-3.45,7.7-7.7-3.45-7.7-7.7-7.7Z"/><circle class="cls-1" cx="36.75" cy="11.56" r="3.15"/></g></g></svg>